<mxfile host="app.diagrams.net" agent="Mozilla/5.0 (Macintosh; Intel Mac OS X 10_15_7) AppleWebKit/537.36 (KHTML, like Gecko) Chrome/138.0.0.0 Safari/537.36" version="26.1.0">
  <diagram id="C5RBs43oDa-KdzZeNtuy" name="Page-1">
    <mxGraphModel dx="1026" dy="1084" grid="1" gridSize="14" guides="1" tooltips="1" connect="1" arrows="1" fold="1" page="0" pageScale="1" pageWidth="827" pageHeight="1169" math="0" shadow="0">
      <root>
        <mxCell id="WIyWlLk6GJQsqaUBKTNV-0" />
        <mxCell id="WIyWlLk6GJQsqaUBKTNV-1" parent="WIyWlLk6GJQsqaUBKTNV-0" />
        <mxCell id="WIyWlLk6GJQsqaUBKTNV-2" value="" style="rounded=0;html=1;jettySize=auto;orthogonalLoop=1;fontSize=11;endArrow=block;endFill=0;endSize=8;strokeWidth=1;shadow=0;labelBackgroundColor=none;edgeStyle=orthogonalEdgeStyle;" parent="WIyWlLk6GJQsqaUBKTNV-1" source="WIyWlLk6GJQsqaUBKTNV-3" target="7QaSrPO3ImxFw2sasRkc-4" edge="1">
          <mxGeometry relative="1" as="geometry">
            <mxPoint x="220" y="170" as="targetPoint" />
          </mxGeometry>
        </mxCell>
        <mxCell id="7QaSrPO3ImxFw2sasRkc-12" style="edgeStyle=orthogonalEdgeStyle;rounded=0;orthogonalLoop=1;jettySize=auto;html=1;exitX=1;exitY=0.5;exitDx=0;exitDy=0;entryX=0;entryY=0.5;entryDx=0;entryDy=0;" edge="1" parent="WIyWlLk6GJQsqaUBKTNV-1" source="WIyWlLk6GJQsqaUBKTNV-3" target="7QaSrPO3ImxFw2sasRkc-0">
          <mxGeometry relative="1" as="geometry" />
        </mxCell>
        <mxCell id="WIyWlLk6GJQsqaUBKTNV-3" value="&lt;div style=&quot;text-align: left;&quot;&gt;&lt;b&gt;Call Receipt &amp;amp; Triage&lt;/b&gt;&lt;/div&gt;&lt;div style=&quot;text-align: left;&quot;&gt;&lt;ul&gt;&lt;li&gt;911 call taken&amp;nbsp;&amp;nbsp;&lt;/li&gt;&lt;li&gt;Confirm location &amp;amp; incident type in CAD&amp;nbsp;&lt;/li&gt;&lt;/ul&gt;&lt;/div&gt;" style="rounded=1;whiteSpace=wrap;html=1;fontSize=12;glass=0;strokeWidth=1;shadow=0;" parent="WIyWlLk6GJQsqaUBKTNV-1" vertex="1">
          <mxGeometry x="85" y="10" width="280" height="90" as="geometry" />
        </mxCell>
        <mxCell id="7QaSrPO3ImxFw2sasRkc-13" style="edgeStyle=orthogonalEdgeStyle;rounded=0;orthogonalLoop=1;jettySize=auto;html=1;exitX=0.5;exitY=1;exitDx=0;exitDy=0;" edge="1" parent="WIyWlLk6GJQsqaUBKTNV-1" source="7QaSrPO3ImxFw2sasRkc-0" target="7QaSrPO3ImxFw2sasRkc-11">
          <mxGeometry relative="1" as="geometry" />
        </mxCell>
        <mxCell id="7QaSrPO3ImxFw2sasRkc-0" value="&lt;div style=&quot;text-align: left;&quot;&gt;&lt;div&gt;&lt;b&gt;Hazard Classification&lt;/b&gt;&lt;/div&gt;&lt;div&gt;&lt;ul&gt;&lt;li&gt;Lookup address on GIS-driven hazard map&amp;nbsp;&amp;nbsp;&lt;/li&gt;&lt;li&gt;Classify as Low, Medium, or High hazard&amp;nbsp;&lt;/li&gt;&lt;/ul&gt;&lt;/div&gt;&lt;/div&gt;" style="rounded=1;whiteSpace=wrap;html=1;fontSize=12;glass=0;strokeWidth=1;shadow=0;" vertex="1" parent="WIyWlLk6GJQsqaUBKTNV-1">
          <mxGeometry x="510" y="10" width="290" height="90" as="geometry" />
        </mxCell>
        <mxCell id="7QaSrPO3ImxFw2sasRkc-3" style="edgeStyle=orthogonalEdgeStyle;rounded=0;orthogonalLoop=1;jettySize=auto;html=1;exitX=0.5;exitY=1;exitDx=0;exitDy=0;" edge="1" parent="WIyWlLk6GJQsqaUBKTNV-1" source="WIyWlLk6GJQsqaUBKTNV-3" target="WIyWlLk6GJQsqaUBKTNV-3">
          <mxGeometry relative="1" as="geometry" />
        </mxCell>
        <mxCell id="7QaSrPO3ImxFw2sasRkc-4" value="&lt;div style=&quot;&quot;&gt;&lt;div&gt;&lt;b&gt;&amp;nbsp; Initial Dispatch Determination&lt;/b&gt;&lt;/div&gt;&lt;div&gt;&lt;ul&gt;&lt;li&gt;Category Responses →&amp;nbsp;Defined in the table&amp;nbsp;&lt;/li&gt;&lt;/ul&gt;&lt;/div&gt;&lt;/div&gt;" style="rounded=1;whiteSpace=wrap;html=1;fontSize=12;glass=0;strokeWidth=1;shadow=0;align=left;" vertex="1" parent="WIyWlLk6GJQsqaUBKTNV-1">
          <mxGeometry x="30" y="280" width="390" height="90" as="geometry" />
        </mxCell>
        <mxCell id="7QaSrPO3ImxFw2sasRkc-5" value="&lt;div style=&quot;text-align: left;&quot;&gt;&lt;div&gt;&lt;b&gt;&amp;nbsp;Availability &amp;amp; Next Dispatch&lt;/b&gt;&lt;/div&gt;&lt;div&gt;&lt;ul&gt;&lt;li&gt;Units now available for next call&amp;nbsp;&amp;nbsp;&lt;/li&gt;&lt;li&gt;No preemption except life-threatening diversions&amp;nbsp;&amp;nbsp;&lt;/li&gt;&lt;/ul&gt;&lt;/div&gt;&lt;/div&gt;" style="rounded=1;whiteSpace=wrap;html=1;fontSize=12;glass=0;strokeWidth=1;shadow=0;" vertex="1" parent="WIyWlLk6GJQsqaUBKTNV-1">
          <mxGeometry x="275" y="1652" width="290" height="90" as="geometry" />
        </mxCell>
        <mxCell id="7QaSrPO3ImxFw2sasRkc-23" style="edgeStyle=orthogonalEdgeStyle;rounded=0;orthogonalLoop=1;jettySize=auto;html=1;exitX=0.5;exitY=1;exitDx=0;exitDy=0;" edge="1" parent="WIyWlLk6GJQsqaUBKTNV-1" source="7QaSrPO3ImxFw2sasRkc-6" target="7QaSrPO3ImxFw2sasRkc-7">
          <mxGeometry relative="1" as="geometry" />
        </mxCell>
        <mxCell id="7QaSrPO3ImxFw2sasRkc-6" value="&lt;div style=&quot;text-align: left;&quot;&gt;&lt;div&gt;&lt;b&gt;4. Resource Assignment&lt;/b&gt;&lt;/div&gt;&lt;div&gt;&lt;ul&gt;&lt;li&gt;Fire suppression units:&amp;nbsp;&amp;nbsp;&lt;/li&gt;&lt;li&gt;1st-due Station Zone → if unavailable , backup Fire Beats&amp;nbsp;&amp;nbsp;&lt;/li&gt;&lt;li&gt;EMS units: closest available via AVL&amp;nbsp;&lt;/li&gt;&lt;li&gt;Enforce minimum crew per apparatus (Engine/Truck = 3; Rescue = 4; EMS = 2; Chiefs = 1)&amp;nbsp;&amp;nbsp;&lt;/li&gt;&lt;/ul&gt;&lt;/div&gt;&lt;/div&gt;" style="rounded=1;whiteSpace=wrap;html=1;fontSize=12;glass=0;strokeWidth=1;shadow=0;" vertex="1" parent="WIyWlLk6GJQsqaUBKTNV-1">
          <mxGeometry x="255" y="450" width="330" height="150" as="geometry" />
        </mxCell>
        <mxCell id="7QaSrPO3ImxFw2sasRkc-24" value="" style="edgeStyle=orthogonalEdgeStyle;rounded=0;orthogonalLoop=1;jettySize=auto;html=1;" edge="1" parent="WIyWlLk6GJQsqaUBKTNV-1" source="7QaSrPO3ImxFw2sasRkc-7">
          <mxGeometry relative="1" as="geometry">
            <mxPoint x="420" y="830" as="targetPoint" />
          </mxGeometry>
        </mxCell>
        <mxCell id="7QaSrPO3ImxFw2sasRkc-7" value="&lt;div style=&quot;text-align: left;&quot;&gt;&lt;div&gt;&lt;b&gt;&lt;br&gt;&lt;/b&gt;&lt;/div&gt;&lt;div&gt;&lt;b&gt;Response Time &amp;amp; Travel&lt;/b&gt;&lt;/div&gt;&lt;div&gt;&lt;ul&gt;&lt;li&gt;Turnout + travel standards&amp;nbsp;&amp;nbsp;&lt;/li&gt;&lt;ul&gt;&lt;li&gt;1st engine on-scene ≤ 5 min 20 sec&amp;nbsp;&lt;/li&gt;&lt;li&gt;Second Engine on-scene&amp;nbsp; ≤ 7 min 20 sec&amp;nbsp;&lt;/li&gt;&lt;li&gt;Full initial complement ≤ 9 min 20 sec (± allowances)&amp;nbsp;&amp;nbsp;&lt;/li&gt;&lt;/ul&gt;&lt;li&gt;“Due regard” emergency driving rules&amp;nbsp;&amp;nbsp;&lt;/li&gt;&lt;ul&gt;&lt;li&gt;May exceed speed by ≤ 10 mph, wrong-way travel with full stop at reds&amp;nbsp;&lt;/li&gt;&lt;/ul&gt;&lt;/ul&gt;&lt;/div&gt;&lt;/div&gt;" style="rounded=1;whiteSpace=wrap;html=1;fontSize=12;glass=0;strokeWidth=1;shadow=0;" vertex="1" parent="WIyWlLk6GJQsqaUBKTNV-1">
          <mxGeometry x="175" y="650" width="490" height="130" as="geometry" />
        </mxCell>
        <mxCell id="7QaSrPO3ImxFw2sasRkc-48" value="" style="edgeStyle=orthogonalEdgeStyle;rounded=0;orthogonalLoop=1;jettySize=auto;html=1;" edge="1" parent="WIyWlLk6GJQsqaUBKTNV-1" source="7QaSrPO3ImxFw2sasRkc-9" target="7QaSrPO3ImxFw2sasRkc-5">
          <mxGeometry relative="1" as="geometry" />
        </mxCell>
        <mxCell id="7QaSrPO3ImxFw2sasRkc-9" value="&lt;div style=&quot;&quot;&gt;&lt;div&gt;&lt;b&gt;&amp;nbsp;Demobilization &amp;amp; Return to Service&lt;/b&gt;&lt;/div&gt;&lt;div&gt;&lt;ul&gt;&lt;li&gt;Units clear scene&amp;nbsp;&amp;nbsp;&lt;/li&gt;&lt;li&gt;Return to firezone boundary&amp;nbsp;&amp;nbsp;&lt;/li&gt;&lt;li&gt;Mark “In-Service” in CAD&amp;nbsp;&lt;/li&gt;&lt;/ul&gt;&lt;/div&gt;&lt;/div&gt;" style="rounded=1;whiteSpace=wrap;html=1;fontSize=12;glass=0;strokeWidth=1;shadow=0;align=left;" vertex="1" parent="WIyWlLk6GJQsqaUBKTNV-1">
          <mxGeometry x="294.75" y="1470" width="250.5" height="116" as="geometry" />
        </mxCell>
        <mxCell id="7QaSrPO3ImxFw2sasRkc-10" value="Currently Sequence" style="text;html=1;align=center;verticalAlign=middle;resizable=0;points=[];autosize=1;strokeColor=none;fillColor=none;" vertex="1" parent="WIyWlLk6GJQsqaUBKTNV-1">
          <mxGeometry x="260" y="150" width="130" height="30" as="geometry" />
        </mxCell>
        <mxCell id="7QaSrPO3ImxFw2sasRkc-11" value="&lt;div style=&quot;text-align: left;&quot;&gt;&lt;div&gt;&lt;b&gt;&amp;nbsp;Initial Dispatch Determination&lt;/b&gt;&lt;/div&gt;&lt;div&gt;&lt;ul&gt;&lt;li&gt;Use “response grid” to map hazard class to required apparatus + personnel targets&amp;nbsp;&lt;/li&gt;&lt;/ul&gt;&lt;/div&gt;&lt;/div&gt;" style="rounded=1;whiteSpace=wrap;html=1;fontSize=12;glass=0;strokeWidth=1;shadow=0;" vertex="1" parent="WIyWlLk6GJQsqaUBKTNV-1">
          <mxGeometry x="480" y="280" width="350" height="90" as="geometry" />
        </mxCell>
        <mxCell id="7QaSrPO3ImxFw2sasRkc-15" value="Future Sequence" style="text;html=1;align=center;verticalAlign=middle;resizable=0;points=[];autosize=1;strokeColor=none;fillColor=none;" vertex="1" parent="WIyWlLk6GJQsqaUBKTNV-1">
          <mxGeometry x="370" y="18" width="120" height="30" as="geometry" />
        </mxCell>
        <mxCell id="7QaSrPO3ImxFw2sasRkc-19" value="" style="group" vertex="1" connectable="0" parent="WIyWlLk6GJQsqaUBKTNV-1">
          <mxGeometry x="420" y="450" as="geometry" />
        </mxCell>
        <mxCell id="7QaSrPO3ImxFw2sasRkc-18" style="edgeStyle=orthogonalEdgeStyle;rounded=0;orthogonalLoop=1;jettySize=auto;html=1;exitX=0.5;exitY=1;exitDx=0;exitDy=0;" edge="1" parent="7QaSrPO3ImxFw2sasRkc-19" source="7QaSrPO3ImxFw2sasRkc-4">
          <mxGeometry relative="1" as="geometry">
            <mxPoint as="targetPoint" />
          </mxGeometry>
        </mxCell>
        <mxCell id="7QaSrPO3ImxFw2sasRkc-17" style="edgeStyle=orthogonalEdgeStyle;rounded=0;orthogonalLoop=1;jettySize=auto;html=1;exitX=0.5;exitY=1;exitDx=0;exitDy=0;" edge="1" parent="7QaSrPO3ImxFw2sasRkc-19" source="7QaSrPO3ImxFw2sasRkc-11">
          <mxGeometry relative="1" as="geometry">
            <mxPoint as="targetPoint" />
          </mxGeometry>
        </mxCell>
        <mxCell id="7QaSrPO3ImxFw2sasRkc-43" value="" style="edgeStyle=orthogonalEdgeStyle;rounded=0;orthogonalLoop=1;jettySize=auto;html=1;" edge="1" parent="WIyWlLk6GJQsqaUBKTNV-1" source="7QaSrPO3ImxFw2sasRkc-20" target="7QaSrPO3ImxFw2sasRkc-34">
          <mxGeometry relative="1" as="geometry">
            <Array as="points">
              <mxPoint x="420" y="990" />
              <mxPoint x="420" y="990" />
            </Array>
          </mxGeometry>
        </mxCell>
        <mxCell id="7QaSrPO3ImxFw2sasRkc-20" value="&lt;div style=&quot;&quot;&gt;&lt;div&gt;&lt;b&gt;On-Scene Operations&lt;/b&gt;&lt;/div&gt;&lt;div&gt;&amp;nbsp; &amp;nbsp;a. First engine: size-up and radio back conditions&amp;nbsp;&amp;nbsp;&lt;/div&gt;&lt;div&gt;&amp;nbsp; &amp;nbsp;b. Secondary units:&amp;nbsp;&amp;nbsp;&lt;/div&gt;&lt;div&gt;&amp;nbsp; &amp;nbsp; &amp;nbsp; • 2nd engine secures water supply&amp;nbsp;&amp;nbsp;&lt;/div&gt;&lt;div&gt;&amp;nbsp; &amp;nbsp; &amp;nbsp; • Truck/tower positions for aerial ops&amp;nbsp;&amp;nbsp;&lt;/div&gt;&lt;div&gt;&amp;nbsp; &amp;nbsp; &amp;nbsp; • Rescue handles special tasks (e.g. extrication)&amp;nbsp;&amp;nbsp;&lt;/div&gt;&lt;div&gt;&amp;nbsp; &amp;nbsp;c. Incident Commander assigns crews &amp;amp; approves cancellations&amp;nbsp;&lt;/div&gt;&lt;/div&gt;" style="rounded=1;whiteSpace=wrap;html=1;fontSize=12;glass=0;strokeWidth=1;shadow=0;align=left;" vertex="1" parent="WIyWlLk6GJQsqaUBKTNV-1">
          <mxGeometry x="225" y="830" width="410" height="124.5" as="geometry" />
        </mxCell>
        <mxCell id="7QaSrPO3ImxFw2sasRkc-50" style="edgeStyle=orthogonalEdgeStyle;rounded=0;orthogonalLoop=1;jettySize=auto;html=1;exitX=0;exitY=0.5;exitDx=0;exitDy=0;entryX=1;entryY=1;entryDx=0;entryDy=0;" edge="1" parent="WIyWlLk6GJQsqaUBKTNV-1" source="7QaSrPO3ImxFw2sasRkc-26" target="7QaSrPO3ImxFw2sasRkc-34">
          <mxGeometry relative="1" as="geometry" />
        </mxCell>
        <mxCell id="7QaSrPO3ImxFw2sasRkc-26" value="&lt;div style=&quot;&quot;&gt;&lt;div&gt;&lt;b&gt;Units Coordination&lt;/b&gt;&lt;/div&gt;&lt;div&gt;&lt;ul&gt;&lt;li&gt;Cancel additional enroute dispatched units if available are enough&lt;/li&gt;&lt;/ul&gt;&lt;/div&gt;&lt;div&gt;&lt;br&gt;&lt;/div&gt;&lt;/div&gt;" style="rounded=1;whiteSpace=wrap;html=1;fontSize=12;glass=0;strokeWidth=1;shadow=0;align=left;" vertex="1" parent="WIyWlLk6GJQsqaUBKTNV-1">
          <mxGeometry x="600" y="1340" width="210" height="120" as="geometry" />
        </mxCell>
        <mxCell id="7QaSrPO3ImxFw2sasRkc-35" style="edgeStyle=orthogonalEdgeStyle;rounded=0;orthogonalLoop=1;jettySize=auto;html=1;entryX=0.5;entryY=1;entryDx=0;entryDy=0;" edge="1" parent="WIyWlLk6GJQsqaUBKTNV-1" source="7QaSrPO3ImxFw2sasRkc-34" target="7QaSrPO3ImxFw2sasRkc-45">
          <mxGeometry relative="1" as="geometry">
            <mxPoint x="82.5" y="992.25" as="targetPoint" />
          </mxGeometry>
        </mxCell>
        <mxCell id="7QaSrPO3ImxFw2sasRkc-36" style="edgeStyle=orthogonalEdgeStyle;rounded=0;orthogonalLoop=1;jettySize=auto;html=1;exitX=0.5;exitY=1;exitDx=0;exitDy=0;" edge="1" parent="WIyWlLk6GJQsqaUBKTNV-1" source="7QaSrPO3ImxFw2sasRkc-34" target="7QaSrPO3ImxFw2sasRkc-9">
          <mxGeometry relative="1" as="geometry">
            <Array as="points">
              <mxPoint x="408" y="1550" />
              <mxPoint x="408" y="1550" />
            </Array>
          </mxGeometry>
        </mxCell>
        <mxCell id="7QaSrPO3ImxFw2sasRkc-46" style="edgeStyle=orthogonalEdgeStyle;rounded=0;orthogonalLoop=1;jettySize=auto;html=1;" edge="1" parent="WIyWlLk6GJQsqaUBKTNV-1" source="7QaSrPO3ImxFw2sasRkc-34" target="7QaSrPO3ImxFw2sasRkc-26">
          <mxGeometry relative="1" as="geometry" />
        </mxCell>
        <mxCell id="7QaSrPO3ImxFw2sasRkc-34" value="Incident Resolved or Escalated, Under Control?" style="rhombus;whiteSpace=wrap;html=1;" vertex="1" parent="WIyWlLk6GJQsqaUBKTNV-1">
          <mxGeometry x="317.75" y="1078" width="204.5" height="200" as="geometry" />
        </mxCell>
        <mxCell id="7QaSrPO3ImxFw2sasRkc-38" value="Incident Resolved" style="text;html=1;align=center;verticalAlign=middle;resizable=0;points=[];autosize=1;strokeColor=none;fillColor=none;" vertex="1" parent="WIyWlLk6GJQsqaUBKTNV-1">
          <mxGeometry x="135" y="1169" width="120" height="30" as="geometry" />
        </mxCell>
        <mxCell id="7QaSrPO3ImxFw2sasRkc-40" value="Notes/Questions:&lt;div&gt;&lt;span style=&quot;text-wrap-mode: nowrap;&quot;&gt;If a fire needs three apparatus, and the nearest station has two of them:&amp;nbsp;&lt;/span&gt;&lt;/div&gt;&lt;div&gt;&lt;span style=&quot;text-wrap-mode: nowrap;&quot;&gt;will they get the third one from next station in line or they will consider station unavailable?&lt;/span&gt;&lt;/div&gt;&lt;div&gt;&lt;span style=&quot;text-wrap-mode: nowrap;&quot;&gt;&lt;br&gt;&lt;/span&gt;&lt;/div&gt;&lt;div&gt;&lt;span style=&quot;text-wrap-mode: nowrap;&quot;&gt;Available Apparatus:&lt;br&gt;- Suppression Unit: Idle at station or in their fire zone boundary while coming back from a fire ()&lt;/span&gt;&lt;/div&gt;&lt;div&gt;&lt;span style=&quot;text-wrap-mode: nowrap;&quot;&gt;- EMS Unit: As long as it is idle and nearest to the ems call&amp;nbsp;&lt;/span&gt;&lt;/div&gt;&lt;div&gt;&lt;span style=&quot;text-wrap-mode: nowrap;&quot;&gt;States of Apparatus in EMS:&lt;/span&gt;&lt;/div&gt;&lt;div&gt;&lt;span style=&quot;white-space: pre;&quot;&gt;&#x9;&lt;/span&gt;&lt;span style=&quot;text-wrap-mode: nowrap;&quot;&gt;Idle, Returning, Active, Traveling&lt;/span&gt;&lt;/div&gt;&lt;div&gt;&lt;span style=&quot;text-wrap-mode: nowrap;&quot;&gt;Type of Units: FAST, Squad (Copy it from slides)&amp;nbsp;&amp;nbsp;&lt;/span&gt;&lt;/div&gt;&lt;div&gt;&lt;span style=&quot;text-wrap-mode: nowrap;&quot;&gt;&lt;br&gt;&lt;/span&gt;&lt;/div&gt;&lt;div&gt;&lt;span style=&quot;text-wrap-mode: nowrap;&quot;&gt;Canceling enroute units&lt;/span&gt;&lt;/div&gt;&lt;div&gt;&lt;span style=&quot;text-wrap-mode: nowrap;&quot;&gt;- How do you define or change state to idle and start traveling back to station&lt;br&gt;&lt;br&gt;&lt;/span&gt;&lt;/div&gt;&lt;div&gt;&lt;span style=&quot;text-wrap-mode: nowrap;&quot;&gt;&lt;br&gt;&lt;/span&gt;&lt;/div&gt;&lt;div&gt;&lt;br&gt;&lt;/div&gt;" style="rounded=0;html=1;align=left;whiteSpace=wrap;labelBorderColor=none;fillColor=#ffe6cc;strokeColor=#d79b00;" vertex="1" parent="WIyWlLk6GJQsqaUBKTNV-1">
          <mxGeometry x="868" y="514" width="602" height="266" as="geometry" />
        </mxCell>
        <mxCell id="7QaSrPO3ImxFw2sasRkc-42" value="&lt;div style=&quot;text-align: center;&quot;&gt;&lt;span style=&quot;background-color: transparent; color: light-dark(rgb(0, 0, 0), rgb(255, 255, 255)); text-wrap-mode: nowrap;&quot;&gt;Under Control&lt;/span&gt;&lt;/div&gt;" style="text;whiteSpace=wrap;html=1;" vertex="1" parent="WIyWlLk6GJQsqaUBKTNV-1">
          <mxGeometry x="570" y="1169" width="100" height="40" as="geometry" />
        </mxCell>
        <mxCell id="7QaSrPO3ImxFw2sasRkc-49" style="edgeStyle=orthogonalEdgeStyle;rounded=0;orthogonalLoop=1;jettySize=auto;html=1;entryX=0;entryY=0.5;entryDx=0;entryDy=0;" edge="1" parent="WIyWlLk6GJQsqaUBKTNV-1" source="7QaSrPO3ImxFw2sasRkc-45" target="7QaSrPO3ImxFw2sasRkc-6">
          <mxGeometry relative="1" as="geometry">
            <Array as="points">
              <mxPoint x="80" y="525" />
            </Array>
          </mxGeometry>
        </mxCell>
        <mxCell id="7QaSrPO3ImxFw2sasRkc-45" value="&lt;div style=&quot;&quot;&gt;&lt;div&gt;&lt;b&gt;Units Coordination&lt;/b&gt;&lt;/div&gt;&lt;div&gt;&lt;ul&gt;&lt;li&gt;(If not already full) trigger Second Alarm → send extra units&lt;/li&gt;&lt;/ul&gt;&lt;/div&gt;&lt;div&gt;&lt;br&gt;&lt;/div&gt;&lt;/div&gt;" style="rounded=1;whiteSpace=wrap;html=1;fontSize=12;glass=0;strokeWidth=1;shadow=0;align=left;" vertex="1" parent="WIyWlLk6GJQsqaUBKTNV-1">
          <mxGeometry y="830" width="200" height="124.5" as="geometry" />
        </mxCell>
        <mxCell id="7QaSrPO3ImxFw2sasRkc-52" value="&lt;b&gt;Start Node&lt;/b&gt;" style="text;html=1;align=center;verticalAlign=middle;resizable=0;points=[];autosize=1;strokeColor=none;fillColor=none;" vertex="1" parent="WIyWlLk6GJQsqaUBKTNV-1">
          <mxGeometry x="104" y="-29" width="84" height="28" as="geometry" />
        </mxCell>
        <mxCell id="7QaSrPO3ImxFw2sasRkc-53" value="&lt;b&gt;End Node&lt;/b&gt;" style="text;html=1;align=center;verticalAlign=middle;resizable=0;points=[];autosize=1;strokeColor=none;fillColor=none;" vertex="1" parent="WIyWlLk6GJQsqaUBKTNV-1">
          <mxGeometry x="356" y="1749" width="84" height="28" as="geometry" />
        </mxCell>
      </root>
    </mxGraphModel>
  </diagram>
</mxfile>
